<mxfile host="Electron" agent="Mozilla/5.0 (Windows NT 10.0; Win64; x64) AppleWebKit/537.36 (KHTML, like Gecko) draw.io/26.0.16 Chrome/132.0.6834.196 Electron/34.2.0 Safari/537.36" version="26.0.16">
  <diagram name="Page-1" id="hu2GcPiW0_F7yXGHMq4G">
    <mxGraphModel dx="1338" dy="820" grid="1" gridSize="10" guides="1" tooltips="1" connect="1" arrows="1" fold="1" page="1" pageScale="1" pageWidth="850" pageHeight="1100" math="0" shadow="0">
      <root>
        <mxCell id="0" />
        <mxCell id="1" parent="0" />
        <mxCell id="yRij5WZZbqsP3CioCUJ2-1" value="Button to Log-Fish" style="html=1;verticalAlign=bottom;endArrow=block;labelBackgroundColor=none;fontFamily=Verdana;fontSize=12;edgeStyle=elbowEdgeStyle;elbow=vertical;" edge="1" parent="1">
          <mxGeometry relative="1" as="geometry">
            <mxPoint x="145" y="180" as="sourcePoint" />
            <mxPoint x="317" y="179.9310344827586" as="targetPoint" />
          </mxGeometry>
        </mxCell>
        <mxCell id="yRij5WZZbqsP3CioCUJ2-2" value="" style="shape=umlLifeline;perimeter=lifelinePerimeter;whiteSpace=wrap;html=1;container=1;dropTarget=0;collapsible=0;recursiveResize=0;outlineConnect=0;portConstraint=eastwest;newEdgeStyle={&quot;curved&quot;:0,&quot;rounded&quot;:0};participant=umlActor;" vertex="1" parent="1">
          <mxGeometry x="120" y="80" width="20" height="630" as="geometry" />
        </mxCell>
        <mxCell id="yRij5WZZbqsP3CioCUJ2-3" value="" style="html=1;points=[[0,0,0,0,5],[0,1,0,0,-5],[1,0,0,0,5],[1,1,0,0,-5]];perimeter=orthogonalPerimeter;outlineConnect=0;targetShapes=umlLifeline;portConstraint=eastwest;newEdgeStyle={&quot;curved&quot;:0,&quot;rounded&quot;:0};" vertex="1" parent="yRij5WZZbqsP3CioCUJ2-2">
          <mxGeometry x="5" y="90" width="10" height="540" as="geometry" />
        </mxCell>
        <mxCell id="yRij5WZZbqsP3CioCUJ2-4" value="User" style="text;html=1;align=center;verticalAlign=middle;resizable=0;points=[];autosize=1;strokeColor=none;fillColor=none;" vertex="1" parent="1">
          <mxGeometry x="105" y="50" width="50" height="30" as="geometry" />
        </mxCell>
        <mxCell id="yRij5WZZbqsP3CioCUJ2-5" value="" style="edgeStyle=orthogonalEdgeStyle;rounded=0;orthogonalLoop=1;jettySize=auto;html=1;curved=0;" edge="1" parent="1">
          <mxGeometry relative="1" as="geometry">
            <mxPoint x="330" y="230" as="sourcePoint" />
            <mxPoint x="480" y="230" as="targetPoint" />
            <Array as="points">
              <mxPoint x="360" y="230" />
              <mxPoint x="360" y="230" />
            </Array>
          </mxGeometry>
        </mxCell>
        <mxCell id="yRij5WZZbqsP3CioCUJ2-6" value="fetchProducerInfo()" style="text;whiteSpace=wrap;html=1;" vertex="1" parent="1">
          <mxGeometry x="345" y="190" width="110" height="20" as="geometry" />
        </mxCell>
        <mxCell id="yRij5WZZbqsP3CioCUJ2-7" value="fetchIngrInfo()" style="text;whiteSpace=wrap;html=1;" vertex="1" parent="1">
          <mxGeometry x="540" y="290" width="82" height="30" as="geometry" />
        </mxCell>
        <mxCell id="yRij5WZZbqsP3CioCUJ2-8" style="edgeStyle=orthogonalEdgeStyle;rounded=0;orthogonalLoop=1;jettySize=auto;html=1;curved=0;" edge="1" parent="1" target="yRij5WZZbqsP3CioCUJ2-29">
          <mxGeometry relative="1" as="geometry">
            <mxPoint x="330" y="335.0344827586208" as="sourcePoint" />
            <mxPoint x="630" y="310" as="targetPoint" />
            <Array as="points">
              <mxPoint x="450" y="335" />
              <mxPoint x="450" y="335" />
            </Array>
          </mxGeometry>
        </mxCell>
        <mxCell id="yRij5WZZbqsP3CioCUJ2-9" value="ProducerData" style="html=1;verticalAlign=bottom;endArrow=open;dashed=1;endSize=8;curved=0;rounded=0;" edge="1" parent="1" source="yRij5WZZbqsP3CioCUJ2-30">
          <mxGeometry x="0.4112" relative="1" as="geometry">
            <mxPoint x="470" y="270.03999999999996" as="sourcePoint" />
            <mxPoint x="330" y="270" as="targetPoint" />
            <mxPoint as="offset" />
          </mxGeometry>
        </mxCell>
        <mxCell id="yRij5WZZbqsP3CioCUJ2-10" value="IngredientData" style="html=1;verticalAlign=bottom;endArrow=open;dashed=1;endSize=8;curved=0;rounded=0;" edge="1" parent="1">
          <mxGeometry x="0.4949" relative="1" as="geometry">
            <mxPoint x="630" y="360" as="sourcePoint" />
            <mxPoint x="330" y="360" as="targetPoint" />
            <mxPoint as="offset" />
          </mxGeometry>
        </mxCell>
        <mxCell id="yRij5WZZbqsP3CioCUJ2-11" value="Choose Producer(click)" style="html=1;verticalAlign=bottom;endArrow=block;labelBackgroundColor=none;fontFamily=Verdana;fontSize=12;edgeStyle=elbowEdgeStyle;elbow=vertical;" edge="1" parent="1">
          <mxGeometry relative="1" as="geometry">
            <mxPoint x="135" y="300" as="sourcePoint" />
            <mxPoint x="300" y="300" as="targetPoint" />
          </mxGeometry>
        </mxCell>
        <mxCell id="yRij5WZZbqsP3CioCUJ2-12" value="Choose Ingredients(click)" style="html=1;verticalAlign=bottom;endArrow=block;labelBackgroundColor=none;fontFamily=Verdana;fontSize=12;edgeStyle=elbowEdgeStyle;elbow=vertical;" edge="1" parent="1">
          <mxGeometry relative="1" as="geometry">
            <mxPoint x="135" y="390" as="sourcePoint" />
            <mxPoint x="300" y="390" as="targetPoint" />
            <mxPoint as="offset" />
          </mxGeometry>
        </mxCell>
        <mxCell id="yRij5WZZbqsP3CioCUJ2-13" value="" style="edgeStyle=orthogonalEdgeStyle;rounded=0;orthogonalLoop=1;jettySize=auto;html=1;curved=0;" edge="1" parent="1" target="yRij5WZZbqsP3CioCUJ2-26">
          <mxGeometry relative="1" as="geometry">
            <mxPoint x="802.5" y="435" as="targetPoint" />
            <Array as="points">
              <mxPoint x="540" y="450" />
              <mxPoint x="540" y="450" />
            </Array>
            <mxPoint x="330" y="450" as="sourcePoint" />
          </mxGeometry>
        </mxCell>
        <mxCell id="yRij5WZZbqsP3CioCUJ2-14" value="ConfirmFinish()" style="text;whiteSpace=wrap;html=1;" vertex="1" parent="1">
          <mxGeometry x="350" y="405" width="110" height="20" as="geometry" />
        </mxCell>
        <mxCell id="yRij5WZZbqsP3CioCUJ2-15" style="edgeStyle=orthogonalEdgeStyle;rounded=0;orthogonalLoop=1;jettySize=auto;html=1;curved=0;" edge="1" parent="1">
          <mxGeometry relative="1" as="geometry">
            <mxPoint x="135" y="545.0434782608696" as="sourcePoint" />
            <mxPoint x="310" y="550" as="targetPoint" />
            <Array as="points">
              <mxPoint x="135" y="550" />
            </Array>
          </mxGeometry>
        </mxCell>
        <mxCell id="yRij5WZZbqsP3CioCUJ2-16" value="Alternative" style="shape=umlFrame;whiteSpace=wrap;html=1;pointerEvents=0;recursiveResize=0;container=1;collapsible=0;width=170;" vertex="1" parent="1">
          <mxGeometry x="110" y="470" width="780" height="280" as="geometry" />
        </mxCell>
        <mxCell id="yRij5WZZbqsP3CioCUJ2-17" value="Cancel order" style="text;html=1;" vertex="1" parent="yRij5WZZbqsP3CioCUJ2-16">
          <mxGeometry width="100" height="20" relative="1" as="geometry">
            <mxPoint x="30" y="40" as="offset" />
          </mxGeometry>
        </mxCell>
        <mxCell id="yRij5WZZbqsP3CioCUJ2-18" value="" style="line;strokeWidth=1;dashed=1;labelPosition=center;verticalLabelPosition=bottom;align=left;verticalAlign=top;spacingLeft=20;spacingTop=15;html=1;whiteSpace=wrap;" vertex="1" parent="yRij5WZZbqsP3CioCUJ2-16">
          <mxGeometry x="5" y="130" width="775" height="10" as="geometry" />
        </mxCell>
        <mxCell id="yRij5WZZbqsP3CioCUJ2-19" value="Button Cancel " style="text;whiteSpace=wrap;html=1;" vertex="1" parent="yRij5WZZbqsP3CioCUJ2-16">
          <mxGeometry x="60" y="85" width="120" height="25" as="geometry" />
        </mxCell>
        <mxCell id="yRij5WZZbqsP3CioCUJ2-20" value="Finish Order" style="text;html=1;align=center;verticalAlign=middle;whiteSpace=wrap;rounded=0;" vertex="1" parent="yRij5WZZbqsP3CioCUJ2-16">
          <mxGeometry x="40" y="150" width="70" height="30" as="geometry" />
        </mxCell>
        <mxCell id="yRij5WZZbqsP3CioCUJ2-21" value="Button FinishOrder" style="text;whiteSpace=wrap;html=1;" vertex="1" parent="yRij5WZZbqsP3CioCUJ2-16">
          <mxGeometry x="80" y="200" width="110" height="30" as="geometry" />
        </mxCell>
        <mxCell id="yRij5WZZbqsP3CioCUJ2-22" style="edgeStyle=orthogonalEdgeStyle;rounded=0;orthogonalLoop=1;jettySize=auto;html=1;curved=0;" edge="1" parent="yRij5WZZbqsP3CioCUJ2-16">
          <mxGeometry relative="1" as="geometry">
            <mxPoint x="25" y="200" as="sourcePoint" />
            <mxPoint x="207" y="200" as="targetPoint" />
            <Array as="points">
              <mxPoint x="50" y="200" />
              <mxPoint x="50" y="200" />
            </Array>
          </mxGeometry>
        </mxCell>
        <mxCell id="yRij5WZZbqsP3CioCUJ2-23" value="ConfirmFinish()" style="text;whiteSpace=wrap;html=1;" vertex="1" parent="yRij5WZZbqsP3CioCUJ2-16">
          <mxGeometry x="340" y="190" width="100" height="20" as="geometry" />
        </mxCell>
        <mxCell id="yRij5WZZbqsP3CioCUJ2-24" value="CancelOrderMes()" style="text;whiteSpace=wrap;html=1;" vertex="1" parent="yRij5WZZbqsP3CioCUJ2-16">
          <mxGeometry x="240" y="70" width="90" height="20" as="geometry" />
        </mxCell>
        <mxCell id="yRij5WZZbqsP3CioCUJ2-25" style="edgeStyle=orthogonalEdgeStyle;rounded=0;orthogonalLoop=1;jettySize=auto;html=1;curved=0;" edge="1" parent="1" target="yRij5WZZbqsP3CioCUJ2-26">
          <mxGeometry relative="1" as="geometry">
            <mxPoint x="809.5" y="690" as="targetPoint" />
            <Array as="points">
              <mxPoint x="450" y="700" />
              <mxPoint x="450" y="700" />
            </Array>
            <mxPoint x="330" y="700" as="sourcePoint" />
          </mxGeometry>
        </mxCell>
        <mxCell id="yRij5WZZbqsP3CioCUJ2-26" value="&lt;b&gt;&lt;font style=&quot;font-size: 11px;&quot;&gt;: FinishOrderScreen&amp;nbsp; &lt;br&gt;&lt;/font&gt;&lt;/b&gt;" style="shape=umlLifeline;perimeter=lifelinePerimeter;whiteSpace=wrap;html=1;container=1;dropTarget=0;collapsible=0;recursiveResize=0;outlineConnect=0;portConstraint=eastwest;newEdgeStyle={&quot;curved&quot;:0,&quot;rounded&quot;:0};" vertex="1" parent="1">
          <mxGeometry x="770" y="75" width="130" height="630" as="geometry" />
        </mxCell>
        <mxCell id="yRij5WZZbqsP3CioCUJ2-27" value="" style="html=1;points=[[0,0,0,0,5],[0,1,0,0,-5],[1,0,0,0,5],[1,1,0,0,-5]];perimeter=orthogonalPerimeter;outlineConnect=0;targetShapes=umlLifeline;portConstraint=eastwest;newEdgeStyle={&quot;curved&quot;:0,&quot;rounded&quot;:0};" vertex="1" parent="yRij5WZZbqsP3CioCUJ2-26">
          <mxGeometry x="60" y="200" width="10" height="430" as="geometry" />
        </mxCell>
        <mxCell id="yRij5WZZbqsP3CioCUJ2-28" value="&lt;b&gt;:Ingredients&lt;/b&gt;" style="shape=umlLifeline;perimeter=lifelinePerimeter;whiteSpace=wrap;html=1;container=1;dropTarget=0;collapsible=0;recursiveResize=0;outlineConnect=0;portConstraint=eastwest;newEdgeStyle={&quot;curved&quot;:0,&quot;rounded&quot;:0};" vertex="1" parent="1">
          <mxGeometry x="595" y="75" width="130" height="630" as="geometry" />
        </mxCell>
        <mxCell id="yRij5WZZbqsP3CioCUJ2-29" value="" style="html=1;points=[[0,0,0,0,5],[0,1,0,0,-5],[1,0,0,0,5],[1,1,0,0,-5]];perimeter=orthogonalPerimeter;outlineConnect=0;targetShapes=umlLifeline;portConstraint=eastwest;newEdgeStyle={&quot;curved&quot;:0,&quot;rounded&quot;:0};" vertex="1" parent="yRij5WZZbqsP3CioCUJ2-28">
          <mxGeometry x="55" y="175" width="20" height="170" as="geometry" />
        </mxCell>
        <mxCell id="yRij5WZZbqsP3CioCUJ2-30" value="&lt;b&gt;:Producer&lt;/b&gt;" style="shape=umlLifeline;perimeter=lifelinePerimeter;whiteSpace=wrap;html=1;container=1;dropTarget=0;collapsible=0;recursiveResize=0;outlineConnect=0;portConstraint=eastwest;newEdgeStyle={&quot;curved&quot;:0,&quot;rounded&quot;:0};" vertex="1" parent="1">
          <mxGeometry x="440" y="80" width="120" height="620" as="geometry" />
        </mxCell>
        <mxCell id="yRij5WZZbqsP3CioCUJ2-31" value="" style="html=1;points=[[0,0,0,0,5],[0,1,0,0,-5],[1,0,0,0,5],[1,1,0,0,-5]];perimeter=orthogonalPerimeter;outlineConnect=0;targetShapes=umlLifeline;portConstraint=eastwest;newEdgeStyle={&quot;curved&quot;:0,&quot;rounded&quot;:0};" vertex="1" parent="yRij5WZZbqsP3CioCUJ2-30">
          <mxGeometry x="50" y="140" width="20" height="180" as="geometry" />
        </mxCell>
        <mxCell id="yRij5WZZbqsP3CioCUJ2-32" value="&lt;b&gt;&lt;font style=&quot;font-size: 11px;&quot;&gt;: OrderIngredientScreen&lt;/font&gt;&lt;/b&gt;" style="shape=umlLifeline;perimeter=lifelinePerimeter;whiteSpace=wrap;html=1;container=1;dropTarget=0;collapsible=0;recursiveResize=0;outlineConnect=0;portConstraint=eastwest;newEdgeStyle={&quot;curved&quot;:0,&quot;rounded&quot;:0};" vertex="1" parent="1">
          <mxGeometry x="260" y="80" width="130" height="650" as="geometry" />
        </mxCell>
        <mxCell id="yRij5WZZbqsP3CioCUJ2-33" value="" style="html=1;points=[[0,0,0,0,5],[0,1,0,0,-5],[1,0,0,0,5],[1,1,0,0,-5]];perimeter=orthogonalPerimeter;outlineConnect=0;targetShapes=umlLifeline;portConstraint=eastwest;newEdgeStyle={&quot;curved&quot;:0,&quot;rounded&quot;:0};" vertex="1" parent="yRij5WZZbqsP3CioCUJ2-32">
          <mxGeometry x="60" y="80" width="10" height="550" as="geometry" />
        </mxCell>
        <mxCell id="yRij5WZZbqsP3CioCUJ2-34" style="edgeStyle=orthogonalEdgeStyle;rounded=0;orthogonalLoop=1;jettySize=auto;html=1;curved=0;exitX=1;exitY=0.727;exitDx=0;exitDy=0;exitPerimeter=0;" edge="1" parent="yRij5WZZbqsP3CioCUJ2-32" source="yRij5WZZbqsP3CioCUJ2-33" target="yRij5WZZbqsP3CioCUJ2-33">
          <mxGeometry relative="1" as="geometry">
            <mxPoint x="80" y="484.1144827586207" as="sourcePoint" />
            <mxPoint x="80.61999999999989" y="500.00000000000006" as="targetPoint" />
            <Array as="points">
              <mxPoint x="70" y="484" />
              <mxPoint x="140" y="484" />
              <mxPoint x="140" y="500" />
            </Array>
          </mxGeometry>
        </mxCell>
      </root>
    </mxGraphModel>
  </diagram>
</mxfile>
